# xmcd
#
# Track frame offsets: 
#        150
#        18570
#        37730
#        50970
#        83831
#        99375
#        119637
#        136499
#        153637
#        178761
#        206478
#        228723
#        247369
#        272204
#        296082
#        314717
#        339040
#
# Disc length: 4781 seconds
#
# Revision: 2
# Processed by: cddbd v1.5.2PL0 Copyright (c) Steve Scherf et al.
# Submitted via: ExactAudioCopy v1.3
#
DISCID=0912ab11
DTITLE=Various Artist - Akella Presents - Rockin' Blues - vol.27  CD2  New!
DYEAR=2013
DGENRE=Blues
TTITLE0=TISHAMINGO - Bad News
TTITLE1=DUFFY BISHOP - Convince Me
TTITLE2=BLUEBIRDS - Ten More Miles
TTITLE3=JOHN LYONS BAND - Lonely Fool
TTITLE4=GHOST TOWN BLUES BAND - Another Lover
TTITLE5=BLEU JACKSON - Women, Whiskey, Guns and Knives
TTITLE6=TIM BROOKS and The ALIEN  SHARECROPPERS - Down Along The Cove
TTITLE7=ZED MITCHELL - Money For My Blues
TTITLE8=DAVID SHELLY and BLUESTONE - Living With The Blues
TTITLE9=GEORGE THOROGOOD - Killer's Blues
TTITLE10=The SULTANS OF SLIDE - Lightning Strikes
TTITLE11=L.A. BLUES ALLIANCE - Who's Been Talking
TTITLE12=JON AMOR - Lover Down
TTITLE13=IMPERIAL CROWNS - Kingsize Jones
TTITLE14=RICK FOWLER - Road To Nowhere
TTITLE15=JOHN CAMPBELLJOHN - Thatґs Just Fine
TTITLE16=The ROCKY ATHAS GROUP - Tearin' Me Up
EXTD=
EXTT0=
EXTT1=
EXTT2=
EXTT3=
EXTT4=
EXTT5=
EXTT6=
EXTT7=
EXTT8=
EXTT9=
EXTT10=
EXTT11=
EXTT12=
EXTT13=
EXTT14=
EXTT15=
EXTT16=
PLAYORDER=
